<?xml version="1.0" ?><!DOCTYPE svg  PUBLIC '-//W3C//DTD SVG 1.1//EN'  'http://www.w3.org/Graphics/SVG/1.1/DTD/svg11.dtd'><svg height="100%" style="fill-rule:evenodd;clip-rule:evenodd;stroke-linejoin:round;stroke-miterlimit:2;" version="1.1" viewBox="0 0 32 32" width="100%" xml:space="preserve" xmlns="http://www.w3.org/2000/svg" xmlns:serif="http://www.serif.com/" xmlns:xlink="http://www.w3.org/1999/xlink"><path d="M6.658,25.622l7.342,-4.867l0,2.245c-0,1.119 0.623,2.145 1.616,2.662c0.993,0.516 2.191,0.437 3.107,-0.206c2.959,-2.076 7.317,-5.135 9.976,-7c0.8,-0.562 1.276,-1.478 1.276,-2.456c0,-0.978 -0.476,-1.894 -1.276,-2.456l-9.976,-7c-0.916,-0.643 -2.114,-0.722 -3.107,-0.206c-0.993,0.517 -1.616,1.543 -1.616,2.662l0,2.245l-7.342,-4.867c-0.921,-0.611 -2.104,-0.665 -3.077,-0.143c-0.974,0.523 -1.581,1.538 -1.581,2.643c0,3.983 0,10.261 0,14.244c0,1.105 0.607,2.12 1.581,2.643c0.973,0.522 2.156,0.468 3.077,-0.143Z"/></svg>